#!OML:ASF F:\VICON\USERDATA\INSTALL\rory3\rory3.ASF
:FULLY-SPECIFIED
:DEGREES
37
root 0.30949403888129423 17.91401496507727 22.241014688226716 -2.3365511798844363 -3.7765721504476915 -6.791047343142638
lfemur -18.88502144972933 1.815292999404005 -10.38575890305654
ltibia 56.82956084592027
lfoot -6.990355883836225 0.962808068087043
ltoes -7.878219917999083
rfemur -2.014099763649151 5.443567591115174 31.474098176524837
rtibia 24.06992456870146
rfoot -19.9160549935765 -9.376175273908995
rtoes 1.15911465379441
lowerback -1.0 0.9291233573752637 6.032790292151903
upperback 0.1851265494723719 2.3668980139363582 2.48242339120673
thorax -5.625230450556875 1.1060844869977888 -0.6581125149613168
lowerneck -16.74870435940854 -2.8534340841095704 -1.1613555567498857
upperneck 21.70344154683827 -3.608891237621021 0.3315393261761199
head 9.676226501372014 -1.7954060799813643 -0.015407393299512018
lclavicle 4.2919795209358663e-16 -7.952365613023251e-16
lhumerus -30.888900220622684 4.283852425816672 81.15556789224436
lradius 19.14814018888579
lwrist 8.395905449726207
lhand -28.54909396056107 17.700746701686292
lfingers nan
lthumb -1.8913473710111695 47.73850541559363
rclavicle 3.5555820822749244e-16 -8.4830771319079385e-16
rhumerus -24.021359570799778 -17.80553387473014 -76.09202616711308
rradius 29.692752584151556
rwrist 2.7130010472660704
rhand -18.12974148242274 -1.0
rfingers nan
rthumb 8.292963245618383 -8.236126178312102
38
root 0.3248425091681231 17.913150359668165 22.261436074080834 -2.3100713620380535 -3.7961942331180407 -8.313396862551441
lfemur -22.29498086009086 1.8377984187299539 -9.535483086929016
ltibia 53.371003173323786
lfoot -7.532531694226854 1.3390094880660337
ltoes -8.281831743044354
rfemur -1.4977458090432911 5.954789041652887 32.80035612739493
rtibia 25.52746128222779
rfoot -16.305029152794283 -8.055463953990266
rtoes 0.8121537067814453
lowerback -1.0 1.255702445543489 7.113545822908975
upperback 0.17412948342114615 2.9033227253942253 2.3209183613812945
thorax -5.543306378945158 1.3442189325735774 -1.2772297323614343
lowerneck -16.618905524466648 -2.958700405916837 -1.1232541772652396
upperneck 21.508597260825738 -3.7753003562003937 0.4803798068915437
head 9.630933955990537 -1.8510162092362865 -0.006756962971312924
lclavicle 4.2846838558331603e-16 -7.998791655515092e-16
lhumerus -32.743503482433525 5.280323132943569 81.52285438468603
lradius 19.76910902488354
lwrist 8.799794703138113
lhand -28.504875344434772 17.667317885476752
lfingers nan
lthumb -1.9056439639651446 47.57893990993976
rclavicle 3.7017668558992166e-16 -8.40664280268419e-16
rhumerus -23.136297422343077 -16.171567261263377 -75.76073533187842
rradius 30.767576978839255
rwrist 2.6713708819010624
rhand -18.158533519236315 -1.0
rfingers nan
rthumb 8.290511678541773 -7.991544725644477
39
root 0.3376065594331372 17.910277909256227 22.929057154218626 -2.6009750357506602 -3.6738477433475323 -8.64677835764161
lfemur -24.390565638746573 1.6115539546635766 -9.97383262075405
ltibia 48.71390277156942
lfoot -7.3202779305002625 2.1873258992391547
ltoes -8.270136698173966
rfemur -1.2334137738102662 5.967434275953055 33.042657141139244
rtibia 27.513635742659638
rfoot -11.908504313855111 -6.971851912615117
rtoes 0.9604313133377169
lowerback -1.0 1.4872933322865585 7.418931218732027
upperback 0.19120971726178157 3.2068091984801748 2.17283540573202
thorax -5.339024901564919 1.4764223741688225 -1.6761303368833906
lowerneck -16.44847676848043 -3.0486571417491906 -1.1391854739332623
upperneck 21.50040415815223 -3.936977007502237 0.569633741578104
head 9.657315402292266 -1.9070977675406382 -0.038634075853090755
lclavicle 4.308034120358363e-16 -8.004915299678082e-16
lhumerus -34.36880157618737 5.887771190072821 81.74636636587785
lradius 20.63397909258664
lwrist 8.760585440414205
lhand -28.424962495179212 18.998953405822082
lfingers nan
lthumb -2.083204431872249 48.38247973301906
rclavicle 3.7530721771503533e-16 -8.38557006388104e-16
rhumerus -22.771360607939783 -14.93231580974323 -75.39955266598336
rradius 31.805378534377567
rwrist 3.1424731579568004
rhand -18.139171507097192 -1.0
rfingers nan
rthumb 8.27771868816046 -7.735287990299989
40
root 0.3473924733804353 17.900095744661694 23.925816388506398 -2.9002304755921897 -3.452110688184632 -8.471674438832233
lfemur -25.538538146389484 1.1621187009415432 -10.92800967232904
ltibia 43.689067985691096
lfoot -6.743225227486742 2.5823378116765205
ltoes -10.079420268034086
rfemur -0.844908004099171 5.686493186237886 32.77880520859247
rtibia 29.296511247910946
rfoot -7.328291113033237 -6.96023883929874
rtoes 1.854044825206876
lowerback -1.0 1.6173060321867603 7.346907650560048
upperback 0.1961205380466866 3.3363846547199336 2.018643304108525
thorax -5.111120161590643 1.5489041567766049 -1.88066342481314
lowerneck -16.274802945730457 -3.122394921825651 -1.220510502905805
upperneck 21.608038843440195 -4.0661295220216465 0.7045922035234033
head 9.698508195493549 -1.9634219651074294 -0.04336736280518168
lclavicle 4.3064218692006278e-16 -8.021184779473923e-16
lhumerus -35.514695105203316 6.39294652482685 81.81349999315842
lradius 21.646901860123705
lwrist 8.660811182830253
lhand -28.525232629931477 19.546032739295534
lfingers nan
lthumb -2.183323543495567 48.9929389576029
rclavicle 3.839497165607738e-16 -8.334476687159685e-16
rhumerus -22.719613595174373 -14.038071259850643 -75.23519381020886
rradius 32.67898037269167
rwrist 3.6422325707185896
rhand -18.16204004795001 -1.0
rfingers nan
rthumb 8.339942677937199 -7.160473136043664
41
root 0.37148327746181864 17.897903601784794 25.167917258846288 -2.9872007465031096 -2.880488462813396 -8.283025164093015
lfemur -25.63166584352499 0.619559349506696 -11.802826754390349
ltibia 38.776270412910876
lfoot -7.500436133789228 2.2904505163781312
ltoes -9.462962965485197
rfemur -0.4895748522373431 5.180008994378687 32.30165456599325
rtibia 31.183231213828325
rfoot -3.651591797963472 -8.114307137969885
rtoes 3.8281568796493897
lowerback -1.0 1.6679973822644474 7.271946829123671
upperback 0.1229564526142337 3.4096384510576243 1.820323460805434
thorax -5.019920300898539 1.5744765753719914 -2.1545582545899813
lowerneck -16.146478717961976 -3.18384610972004 -1.3144750569080546
upperneck 21.711759525617584 -4.186987734710392 0.7463953963415954
head 9.721939241481495 -2.012200991082212 -0.06899537881556321
lclavicle 4.310073339888447e-16 -8.0262527882220725e-16
lhumerus -36.143012415451615 7.0793546111069245 81.7650074595375
lradius 22.626097048566532
lwrist 8.743058448280843
lhand -28.544170632704727 20.152110352209704
lfingers nan
lthumb -2.336884879657041 49.336770190889496
rclavicle 3.864294179250106e-16 -8.322296947548216e-16
rhumerus -22.859293556249337 -13.250724259940935 -75.33846721542622
rradius 33.240147716284916
rwrist 3.8848883741743845
rhand -18.136409478677603 -1.0
rfingers nan
rthumb 8.396256768070034 -7.336627498038172
